<?xml version="1.0" standalone="no"?>
<!DOCTYPE svg PUBLIC "-//W3C//DTD SVG 20010904//EN"
 "http://www.w3.org/TR/2001/REC-SVG-20010904/DTD/svg10.dtd">
<svg version="1.0" xmlns="http://www.w3.org/2000/svg"
 width="840.000000pt" height="460.000000pt" viewBox="0 0 840.000000 460.000000"
 preserveAspectRatio="xMidYMid meet">

<g transform="translate(0.000000,460.000000) scale(0.100000,-0.100000)"
fill="#000000" stroke="none">
<path d="M3107 3992 c-22 -212 -17 -354 17 -453 8 -24 13 -45 11 -47 -16 -17
-125 170 -125 214 0 13 -5 24 -12 24 -17 0 -2 -194 22 -273 11 -36 36 -88 54
-116 31 -46 33 -51 15 -51 -47 0 -114 57 -143 120 l-16 35 4 -59 c7 -91 55
-180 118 -219 34 -21 45 -33 36 -39 -23 -14 -82 -8 -115 12 -41 24 -42 15 -4
-37 38 -53 106 -110 147 -123 58 -19 40 -33 -36 -28 l-70 4 38 -39 c46 -48
139 -95 204 -103 63 -9 49 -26 -21 -27 -28 0 -51 -4 -51 -8 0 -4 26 -18 58
-30 42 -16 79 -22 142 -22 l85 0 -40 -18 c-22 -10 -47 -19 -54 -19 -11 0 -12
-3 -4 -11 15 -15 153 -37 290 -45 l123 -7 -6 -101 c-3 -56 -10 -147 -15 -203
-6 -56 -8 -120 -4 -142 7 -45 36 -77 61 -67 14 6 15 9 1 29 -8 13 -12 35 -9
55 5 36 17 42 25 12 3 -11 10 -20 16 -20 14 0 14 50 0 86 -8 23 -3 57 27 178
20 83 38 157 40 164 2 6 15 12 29 12 24 0 25 -2 25 -68 0 -76 -32 -265 -60
-359 -21 -70 -44 -255 -36 -289 7 -25 -19 -111 -79 -264 -22 -56 -43 -134 -51
-190 -17 -114 -40 -177 -66 -186 -11 -3 -17 -12 -14 -19 6 -17 -27 -47 -82
-75 -209 -104 -253 -409 -84 -578 119 -119 346 -137 477 -37 19 14 36 25 39
25 3 0 6 -18 6 -40 l0 -40 90 0 90 0 0 130 c0 72 3 130 8 130 4 0 36 -58 72
-128 l66 -127 192 -3 193 -2 23 53 c43 97 256 627 256 637 0 6 -43 10 -105 10
-101 0 -106 1 -114 23 -5 13 -17 29 -27 37 -27 23 -42 70 -54 170 -13 102 -61
253 -115 360 -20 40 -26 68 -30 157 -3 85 -12 133 -40 228 -62 209 -95 346
-95 396 0 45 2 49 25 49 21 0 26 -7 40 -57 9 -32 29 -101 44 -153 16 -52 32
-124 35 -159 4 -44 11 -68 23 -77 26 -19 27 -18 59 27 28 41 28 41 10 73 -11
20 -21 66 -26 126 -5 52 -13 115 -19 140 -19 81 -26 76 120 84 144 8 286 29
302 45 8 8 7 11 -4 11 -7 0 -32 9 -54 20 l-40 20 51 -5 c27 -3 75 -1 105 5 56
10 129 38 129 50 0 3 -23 7 -51 7 -70 1 -84 18 -21 27 65 8 158 55 204 103
l38 39 -70 -4 c-46 -3 -70 -1 -70 7 0 6 11 13 25 17 41 10 115 69 151 120 42
59 43 69 2 44 -34 -20 -93 -26 -116 -12 -9 6 2 18 36 39 63 39 111 128 118
219 l4 59 -16 -35 c-29 -64 -96 -120 -144 -120 -21 0 -21 1 3 33 60 80 84 158
94 305 4 74 3 102 -5 102 -7 0 -12 -11 -12 -24 0 -44 -108 -231 -124 -215 -3
3 2 24 10 48 34 99 40 308 15 471 -8 50 -9 48 -31 -70 -6 -36 -29 -103 -51
-149 -31 -67 -54 -99 -115 -158 l-75 -75 -14 -87 c-46 -281 -168 -474 -378
-596 -26 -15 -51 -25 -54 -22 -3 4 -16 48 -28 99 -34 140 -36 142 -139 194
-50 25 -97 50 -103 56 -19 15 -17 117 2 138 12 13 14 31 8 80 -8 79 -30 107
-108 131 -58 18 -58 18 -77 -4 -33 -39 -45 -70 -52 -134 -5 -49 -4 -63 8 -70
9 -5 18 -31 22 -65 l7 -57 -56 -35 c-30 -19 -74 -43 -96 -52 -67 -26 -98 -73
-123 -186 -12 -54 -25 -98 -29 -98 -3 0 -41 23 -83 50 -189 123 -288 287 -336
552 l-19 107 -75 74 c-57 56 -84 92 -110 148 -36 76 -66 174 -66 219 0 55 -17
50 -23 -8z m1144 -1915 c16 -42 31 -99 35 -127 8 -59 23 -74 66 -66 32 5 33 4
64 -62 36 -80 60 -153 68 -205 3 -21 21 -60 42 -88 50 -69 124 -235 124 -281
l0 -37 -52 -3 -53 -3 -3 -72 -3 -73 121 0 c69 0 120 -4 120 -10 0 -5 -15 -44
-34 -87 -150 -344 -179 -409 -186 -417 -7 -7 -46 47 -146 206 l-24 37 44 19
c75 34 115 122 97 215 -26 141 -115 187 -363 187 l-148 0 0 -40 c0 -22 -2 -40
-4 -40 -3 0 -24 13 -48 29 -43 29 -125 61 -155 61 -12 0 -14 7 -10 38 8 45 71
198 91 221 28 31 76 146 81 196 4 28 23 85 43 128 l36 77 48 0 48 0 0 42 c0
53 50 240 63 235 5 -1 22 -37 38 -80z m-236 -1445 c-3 -3 -29 18 -58 46 l-53
53 -20 -22 c-56 -63 -178 -63 -248 -1 -56 50 -73 171 -35 250 50 103 184 131
282 58 l28 -20 52 52 52 52 3 -231 c1 -128 0 -234 -3 -237z m310 403 c33 -32
33 -84 1 -121 -19 -23 -32 -28 -72 -28 l-49 -1 -3 88 -3 87 51 0 c41 0 56 -5
75 -25z"/>
</g>
</svg>
