<?xml version="1.0" standalone="no"?>
<!DOCTYPE svg PUBLIC "-//W3C//DTD SVG 20010904//EN"
 "http://www.w3.org/TR/2001/REC-SVG-20010904/DTD/svg10.dtd">
<svg version="1.0" xmlns="http://www.w3.org/2000/svg"
 width="800.000000pt" height="600.000000pt" viewBox="0 0 800.000000 600.000000"
 preserveAspectRatio="xMidYMid meet">

<g transform="translate(0.000000,600.000000) scale(0.100000,-0.100000)"
fill="#000000" stroke="none">
<path d="M0 3000 l0 -3000 4000 0 4000 0 0 3000 0 3000 -4000 0 -4000 0 0
-3000z m4260 1364 c0 -3 -9 -13 -21 -23 -16 -13 -23 -34 -30 -96 -8 -71 -6
-83 11 -113 11 -18 20 -51 20 -73 0 -36 -4 -42 -52 -73 -29 -18 -87 -50 -128
-71 -120 -59 -152 -98 -165 -195 -4 -30 -18 -82 -32 -114 -13 -33 -33 -100
-44 -150 -11 -50 -32 -136 -46 -191 -23 -88 -26 -119 -26 -265 0 -191 11 -245
53 -245 23 0 24 3 21 48 -4 65 8 127 26 134 7 3 24 -4 37 -16 43 -41 49 -21
10 41 -21 33 -25 49 -20 82 5 40 131 454 140 463 12 13 16 -139 7 -272 -15
-213 -27 -296 -56 -410 -15 -55 -35 -147 -46 -205 -17 -92 -17 -106 -5 -116
13 -9 13 -18 1 -72 -8 -34 -19 -70 -24 -79 -57 -105 -99 -240 -135 -440 -16
-91 -50 -171 -94 -221 l-29 -32 -230 2 -230 3 238 750 c367 1154 369 1160 369
1168 0 4 -184 7 -410 7 l-410 0 0 390 0 390 650 0 c358 0 650 -3 650 -6z m520
-1 c1 -5 -30 -113 -67 -240 -60 -209 -68 -231 -83 -218 -8 7 -55 30 -103 51
-70 29 -87 40 -82 53 44 110 47 124 43 209 -2 71 -7 93 -26 120 l-23 32 170 0
c94 0 171 -3 171 -7z m-665 -2296 c-63 -218 -115 -399 -115 -402 0 -3 -34 -5
-75 -5 -41 0 -75 4 -75 9 0 5 7 44 16 87 18 86 53 173 108 263 19 31 47 100
61 152 28 97 31 107 81 221 27 63 31 67 61 68 17 0 35 5 39 12 26 41 2 -53
-101 -405z m827 -63 c39 -20 85 -81 97 -130 34 -136 -103 -271 -238 -234 -46
12 -105 59 -126 99 -58 112 6 251 130 282 37 9 101 1 137 -17z"/>
</g>
</svg>
